# xmcd
#
# Track frame offsets:
#	150
#	12429
#	25022
#	42492
#	61740
#	78639
#	93512
#	107107
#	125021
#	138275
#	150458
#	163624
#	177311
#
# Disc length: 2604 seconds
#
# Revision: 0
# Processed by: cddbd v1.5.2PL0 Copyright (c) Steve Scherf et al.
# Submitted via: EasyCDDAExtractor 15.1.0.1
#
DISCID=a40a2a0d
DTITLE=Bob Wayne - Hits The Hits
DYEAR=2015
DGENRE=Country
TTITLE0=Rock And Roll
TTITLE1=Skyfall
TTITLE2=Sweet Child O'Mine
TTITLE3=Sympathy For The Devil
TTITLE4=I Shot The Sheriff
TTITLE5=Crazy
TTITLE6=Under The Bridge
TTITLE7=Radioactive
TTITLE8=Come Together
TTITLE9=Disturbia
TTITLE10=The Kids Aren't Alright
TTITLE11=All About That Bass
TTITLE12=Crazy Train
EXTD=
EXTT0=
EXTT1=
EXTT2=
EXTT3=
EXTT4=
EXTT5=
EXTT6=
EXTT7=
EXTT8=
EXTT9=
EXTT10=
EXTT11=
EXTT12=
PLAYORDER=
